<?xml version="1.0" encoding="utf-8"?>
<!-- Generator: Adobe Illustrator 18.1.0, SVG Export Plug-In . SVG Version: 6.00 Build 0)  -->
<!DOCTYPE svg PUBLIC "-//W3C//DTD SVG 1.1//EN" "http://www.w3.org/Graphics/SVG/1.1/DTD/svg11.dtd">
<svg version="1.1" id="Layer_1" xmlns="http://www.w3.org/2000/svg" xmlns:xlink="http://www.w3.org/1999/xlink" x="0px" y="0px"
   width="100.4px" height="100px" viewBox="-255 347 100.4 100" enable-background="new -255 347 100.4 100" xml:space="preserve">
<circle fill="#ffffff" cx="-192.3" cy="376.4" r="11.2"/>
<path fill="#ffffff" d="M-242.8,413.7c0,1.8,1.5,3.3,3.3,3.3h69.3c1.8,0,3.3-1.5,3.3-3.3l0,0c0-1.8-1.5-3.3-3.3-3.3h-69.3
  C-241.4,410.6-242.8,411.9-242.8,413.7L-242.8,413.7z"/>
<path fill="#ffffff" d="M-242.8,376.7c0,1.8,1.5,3.3,3.3,3.3h69.3c1.8,0,3.3-1.5,3.3-3.3l0,0c0-1.8-1.5-3.3-3.3-3.3h-69.3
  C-241.4,373.6-242.8,374.9-242.8,376.7L-242.8,376.7z"/>
<circle fill="#ffffff" cx="-217.3" cy="413.4" r="11.2"/>
</svg>
