<?xml version="1.0" encoding="utf-8"?>
<!-- Generator: Adobe Illustrator 18.1.0, SVG Export Plug-In . SVG Version: 6.00 Build 0)  -->
<!DOCTYPE svg PUBLIC "-//W3C//DTD SVG 1.1//EN" "http://www.w3.org/Graphics/SVG/1.1/DTD/svg11.dtd">
<svg version="1.1" id="Layer_1" xmlns="http://www.w3.org/2000/svg" xmlns:xlink="http://www.w3.org/1999/xlink" x="0px" y="0px"
	 width="100px" height="73.9px" viewBox="-255 360.1 100 73.9" enable-background="new -255 360.1 100 73.9" xml:space="preserve">
<circle fill="#ffffff" cx="-186.8" cy="377.2" r="13.7"/>
<path stroke="#ffffff" stroke-miterlimit="10" d="M-199.5,378c0,1.2-1,2.2-2.2,2.2h-46.2c-1.2,0-2.2-1-2.2-2.2l0,0
	c0-1.2,1-2.2,2.2-2.2h46.2C-200.4,375.9-199.5,376.8-199.5,378L-199.5,378z"/>
<path stroke="#ffffff" stroke-miterlimit="10" d="M-161.3,378c0,1.2-1,2.2-2.2,2.2h-8.6c-1.2,0-2.2-1-2.2-2.2l0,0
	c0-1.2,1-2.2,2.2-2.2h8.6C-162.2,375.9-161.3,376.8-161.3,378L-161.3,378z"/>
<circle cx="-224.5" cy="416.2" r="13.7"/>
<path stroke="#ffffff" stroke-miterlimit="10" d="M-211.8,417c0,1.2,1,2.2,2.2,2.2h46.2c1.2,0,2.2-1,2.2-2.2l0,0
	c0-1.2-1-2.2-2.2-2.2h-46.2C-210.9,414.9-211.8,415.8-211.8,417L-211.8,417z"/>
<path stroke="#ffffff" stroke-miterlimit="10" d="M-250,417c0,1.2,1,2.2,2.2,2.2h8.6c1.2,0,2.2-1,2.2-2.2l0,0c0-1.2-1-2.2-2.2-2.2
	h-8.6C-249,414.9-250,415.8-250,417L-250,417z"/>
</svg>
